<svg width="20" height="20" viewBox="0 0 20 20" fill="#ff6c00" xmlns="http://www.w3.org/2000/svg">
<path fill-rule="inherit" clip-rule="inherit" d="M15.0944 20.0011C14.8151 20.0011 14.5349 19.9312 14.2762 19.7887L10.1963 17.5527C10.0735 17.486 9.92684 17.4857 9.80367 17.5533L5.72415 19.7887C5.12844 20.1152 4.42102 20.0622 3.87639 19.6499C3.33176 19.2377 3.06394 18.5522 3.17765 17.8608L3.95715 13.1247C3.98062 12.9822 3.93528 12.8366 3.83561 12.7358L0.53518 9.38159C0.05314 8.89226 -0.116996 8.17346 0.0910601 7.50674C0.299116 6.83969 0.842092 6.36256 1.50788 6.2618L6.06939 5.57046C6.2066 5.55018 6.32525 5.45972 6.38664 5.33L8.42679 1.02178C8.72427 0.392473 9.32698 0.00140381 10.0002 0.00140381C10.6725 0.00140381 11.2757 0.392473 11.5735 1.02178L12.6117 3.21379C12.7741 3.55835 12.6389 3.97502 12.309 4.14467C11.9781 4.31459 11.5789 4.17271 11.4162 3.82904L10.3779 1.63643C10.2733 1.41533 10.0789 1.39134 10.0002 1.39134C9.92108 1.39134 9.7266 1.41533 9.62194 1.63643L7.5818 5.94529C7.32596 6.4851 6.83199 6.85931 6.26098 6.946L1.69904 7.63676C1.46504 7.67229 1.38346 7.85756 1.35874 7.93615C1.33484 8.01442 1.29612 8.21431 1.46585 8.38674L4.76628 11.7404C5.1799 12.1608 5.36861 12.7661 5.27055 13.3598L4.49148 18.0956C4.45196 18.3386 4.59572 18.4771 4.65958 18.5257C4.72342 18.5737 4.8944 18.6732 5.1037 18.5591L9.1832 16.3231C9.6949 16.0427 10.3055 16.0427 10.8163 16.3228L14.8966 18.5591C15.1055 18.6732 15.2769 18.5737 15.3403 18.5257C15.4042 18.4771 15.548 18.3386 15.508 18.0956L14.7289 13.3598C14.6313 12.7661 14.82 12.1608 15.2336 11.7404L18.5345 8.38674C18.7038 8.21493 18.6655 8.01442 18.6412 7.93615C18.6165 7.85756 18.5345 7.67229 18.3005 7.63676L15.9686 7.28373C15.604 7.22853 15.3519 6.87583 15.4046 6.49601C15.4578 6.1168 15.7976 5.85516 16.1602 5.90849L18.4925 6.2618C19.1578 6.36256 19.7008 6.83969 19.9089 7.50674C20.1165 8.17346 19.9464 8.89226 19.4647 9.38218L16.1643 12.7358C16.0646 12.8366 16.0197 12.9822 16.0428 13.1247L16.8218 17.8605C16.9356 18.5516 16.6686 19.2373 16.1239 19.6496C15.8162 19.8826 15.4561 20.0011 15.0944 20.0011Z" fill="inherit"/>
</svg>
